<?xml version="1.0" encoding="UTF-8" standalone="no"?>
<!-- Created with Inkscape (http://www.inkscape.org/) -->

<svg
   width="1024"
   height="1024"
   viewBox="0 0 270.93332 270.93334"
   version="1.1"
   id="svg5"
   inkscape:version="1.2.2 (732a01da63, 2022-12-09, custom)"
   sodipodi:docname="ic_launcher.svg"
   inkscape:export-filename="../18d1028c/ic_launcher.png"
   inkscape:export-xdpi="96"
   inkscape:export-ydpi="96"
   xmlns:inkscape="http://www.inkscape.org/namespaces/inkscape"
   xmlns:sodipodi="http://sodipodi.sourceforge.net/DTD/sodipodi-0.dtd"
   xmlns="http://www.w3.org/2000/svg"
   xmlns:svg="http://www.w3.org/2000/svg">
  <sodipodi:namedview
     id="namedview7"
     pagecolor="#ffffff"
     bordercolor="#000000"
     borderopacity="0.25"
     inkscape:showpageshadow="false"
     inkscape:pageopacity="0.0"
     inkscape:pagecheckerboard="true"
     inkscape:deskcolor="#d1d1d1"
     inkscape:document-units="mm"
     showgrid="false"
     showguides="true"
     inkscape:zoom="0.2973261"
     inkscape:cx="307.74291"
     inkscape:cy="322.87781"
     inkscape:window-width="1920"
     inkscape:window-height="961"
     inkscape:window-x="0"
     inkscape:window-y="0"
     inkscape:window-maximized="1"
     inkscape:current-layer="g853"
     showborder="false"
     borderlayer="false"
     shape-rendering="crispEdges">
    <sodipodi:guide
       position="525.83323,-40.086989"
       orientation="0,-1"
       id="guide6591"
       inkscape:locked="false" />
  </sodipodi:namedview>
  <defs
     id="defs2" />
  <g
     inkscape:label="Layer 1"
     inkscape:groupmode="layer"
     id="layer1">
    <g
       id="g3052"
       transform="matrix(1.211088,0,0,1.211088,22.278184,409.38027)">
      <g
         id="g13337">
        <g
           id="g14820"
           style="fill:#447821">
          <path
             id="path24594"
             style="fill:#ffffff;fill-opacity:0.740409;stroke:none;stroke-width:4.95365;stroke-linecap:round;stroke-linejoin:round"
             d="m -155.31266,-273.78199 c 22.87805,2.97105 53.65263,-25.63534 68.726509,-8.17077 32.23004,37.34165 -2.30486,109.58572 -38.759789,142.81542 -13.01743,11.86577 -35.21652,14.23177 -52.05737,9.07079 -12.25569,-3.75581 -17.35122,-19.1035 -27.68057,-26.69379 -17.45479,-12.82624 -44.8534,-13.2445 -57.0211,-31.16457 -7.3752,-10.86188 -8.43831,-26.47559 -4.80795,-39.09282 8.17105,-28.39821 27.33983,-61.30682 55.92911,-68.78193 19.30663,-5.048 35.88167,19.44772 55.67116,22.01767 z"
             sodipodi:nodetypes="aaaaaaaaa" />
          <path
             id="path24591"
             style="fill:none;stroke:#9cd769;stroke-width:4.95365;stroke-linecap:round;stroke-linejoin:round;stroke-opacity:1"
             d="m -154.00156,-295.62458 c 18.32745,14.01203 59.282214,4.62546 63.604294,27.28716 9.24121,48.45384 -56.788934,93.75158 -104.974674,104.30189 -17.20631,3.76734 -37.61428,-5.28319 -49.6184,-18.17315 -8.73583,-9.38048 -5.47485,-25.21973 -10.62518,-36.95779 -8.70317,-19.83524 -32.22193,-33.89677 -33.79943,-55.49986 -0.95618,-13.09426 5.93,-27.14769 15.3826,-36.25935 21.27544,-20.50804 54.3304,-39.42335 82.82699,-31.60234 19.24403,5.28162 21.35058,34.78305 37.2038,46.90344 z"
             sodipodi:nodetypes="aaaaaaaaa" />
          <g
             id="g853"
             transform="matrix(1.0584679,0,0,1.0584679,-219.09396,20.867582)">
            <path
               id="path3044"
               style="fill:#285000;fill-opacity:1;stroke:none;stroke-width:15.811;stroke-linecap:round;stroke-linejoin:round"
               d="m 79.335158,-531.71463 v 58.58387 c 0,32.76547 -29.20423,59.14344 -65.48033,59.14344 -36.27608,0 -65.48029,-26.37797 -65.48029,-59.14344 v -13.74509 -67.0592 z"
               sodipodi:nodetypes="csssccc" />
            <circle
               style="fill:#285000;fill-opacity:1;stroke:none;stroke-width:14.3261;stroke-linecap:round;stroke-linejoin:round"
               id="circle3046"
               cx="388.85785"
               cy="351.40353"
               r="18.459251"
               transform="rotate(-89.01967)" />
            <circle
               style="fill:#285000;fill-opacity:1;stroke:none;stroke-width:10.579;stroke-linecap:round;stroke-linejoin:round"
               id="circle3048"
               cx="388.24374"
               cy="473.17291"
               r="13.631085"
               transform="rotate(-89.01967)" />
            <path
               style="color:#000000;fill:#285000;fill-opacity:1;stroke-width:1.71912;stroke-linecap:round;-inkscape-stroke:none"
               d="m 332.60275,-554.9197 c 0.51021,2.30969 1.91735,4.322 3.91169,5.59387 l 22.89596,14.59914 v 7.80421 l 17.82923,3.03829 v -20.62002 l -31.13903,-19.85726 c -4.15116,-2.64654 -9.66173,-1.42749 -12.30922,2.72306 -1.27142,1.99337 -1.69897,4.41013 -1.18863,6.71871 z"
               id="path3050"
               sodipodi:nodetypes="ccccccccc" />
            <g
               id="g7325"
               transform="translate(-292.63095,-49.619124)">
              <circle
                 style="fill:#285000;fill-opacity:1;stroke:none;stroke-width:14.3261;stroke-linecap:round;stroke-linejoin:round"
                 id="circle3046-3"
                 cx="123.988"
                 cy="530.96375"
                 r="18.459251"
                 transform="rotate(-89.01967)" />
              <circle
                 style="fill:#285000;fill-opacity:1;stroke:none;stroke-width:10.579;stroke-linecap:round;stroke-linejoin:round"
                 id="circle3048-6"
                 cx="121.20554"
                 cy="649.08307"
                 r="13.631085"
                 transform="rotate(-89.01967)" />
              <path
                 id="rect3305"
                 style="fill:none;stroke:#285000;stroke-width:15.6019;stroke-linecap:round;stroke-linejoin:round;stroke-dasharray:none;stroke-opacity:1"
                 d="m 535.36587,-234.27984 144.13087,-10.53075 -37.04295,101.45498 h -90.92423 z"
                 sodipodi:nodetypes="ccccc" />
              <path
                 style="fill:none;stroke:#285000;stroke-width:15.6019;stroke-linecap:round;stroke-linejoin:round;stroke-dasharray:none;stroke-opacity:1"
                 d="m 535.43969,-233.83577 -10.66262,-29.48495 H 496.3439"
                 id="path6583"
                 sodipodi:nodetypes="ccc" />
            </g>
          </g>
        </g>
      </g>
    </g>
  </g>
</svg>
